<?xml version="1.0" encoding="UTF-8" standalone="no"?>
<!-- Created with Inkscape (http://www.inkscape.org/) -->

<svg
   xmlns:dc="http://purl.org/dc/elements/1.1/"
   xmlns:cc="http://creativecommons.org/ns#"
   xmlns:rdf="http://www.w3.org/1999/02/22-rdf-syntax-ns#"
   xmlns:svg="http://www.w3.org/2000/svg"
   xmlns="http://www.w3.org/2000/svg"
   xmlns:sodipodi="http://sodipodi.sourceforge.net/DTD/sodipodi-0.dtd"
   xmlns:inkscape="http://www.inkscape.org/namespaces/inkscape"
   width="333.61749"
   height="333.61749"
   id="svg3165"
   version="1.1"
   inkscape:version="0.48.4 r9939"
   sodipodi:docname="New document 7">
  <defs
     id="defs3167" />
  <sodipodi:namedview
     id="base"
     pagecolor="#ffffff"
     bordercolor="#666666"
     borderopacity="1.0"
     inkscape:pageopacity="0.0"
     inkscape:pageshadow="2"
     inkscape:zoom="0.35"
     inkscape:cx="166.80875"
     inkscape:cy="166.80875"
     inkscape:document-units="px"
     inkscape:current-layer="layer1"
     showgrid="false"
     fit-margin-top="0"
     fit-margin-left="0"
     fit-margin-right="0"
     fit-margin-bottom="0"
     inkscape:window-width="1440"
     inkscape:window-height="876"
     inkscape:window-x="0"
     inkscape:window-y="24"
     inkscape:window-maximized="1" />
  <metadata
     id="metadata3170">
    <rdf:RDF>
      <cc:Work
         rdf:about="">
        <dc:format>image/svg+xml</dc:format>
        <dc:type
           rdf:resource="http://purl.org/dc/dcmitype/StillImage" />
        <dc:title></dc:title>
      </cc:Work>
    </rdf:RDF>
  </metadata>
  <g
     inkscape:label="Layer 1"
     inkscape:groupmode="layer"
     id="layer1"
     transform="translate(-208.19125,-365.55344)">
    <path
       inkscape:connector-curvature="0"
       id="path3127"
       style="fill:#ffffff;fill-opacity:1;fill-rule:nonzero;stroke:none"
       d="m 523.39625,365.55344 -296.7925,0 c -10.17125,0 -18.4125,8.24125 -18.4125,18.4125 l 0,296.79249 c 0,10.16875 8.24125,18.4125 18.4125,18.4125 l 159.7825,0 0,-129.19374 -43.47625,0 0,-50.35 43.47625,0 0,-37.13125 c 0,-43.09125 26.31875,-66.555 64.75875,-66.555 18.4125,0 34.23875,1.37125 38.85,1.98375 l 0,45.0325 -26.66,0.0125 c -20.90625,0 -24.95375,9.93375 -24.95375,24.51125 l 0,32.14625 49.85875,0 -6.4925,50.35 -43.36625,0 0,129.19374 85.015,0 c 10.16875,0 18.4125,-8.24375 18.4125,-18.4125 l 0,-296.79249 c 0,-10.17125 -8.24375,-18.4125 -18.4125,-18.4125" />
  </g>
</svg>
