<?xml version="1.0" encoding="UTF-8" standalone="no"?>
<!-- Created with Inkscape (http://www.inkscape.org/) -->

<svg
   xmlns:dc="http://purl.org/dc/elements/1.1/"
   xmlns:cc="http://creativecommons.org/ns#"
   xmlns:rdf="http://www.w3.org/1999/02/22-rdf-syntax-ns#"
   xmlns:svg="http://www.w3.org/2000/svg"
   xmlns="http://www.w3.org/2000/svg"
   xmlns:sodipodi="http://sodipodi.sourceforge.net/DTD/sodipodi-0.dtd"
   xmlns:inkscape="http://www.inkscape.org/namespaces/inkscape"
   width="460.625"
   height="174.75"
   id="svg2"
   version="1.1"
   inkscape:version="0.48.4 r9939"
   sodipodi:docname="New document 1">
  <defs
     id="defs4" />
  <sodipodi:namedview
     id="base"
     pagecolor="#ffffff"
     bordercolor="#666666"
     borderopacity="1.0"
     inkscape:pageopacity="0.0"
     inkscape:pageshadow="2"
     inkscape:zoom="0.49497475"
     inkscape:cx="103.32636"
     inkscape:cy="11.098989"
     inkscape:document-units="px"
     inkscape:current-layer="layer1"
     showgrid="false"
     fit-margin-top="0"
     fit-margin-left="0"
     fit-margin-right="0"
     fit-margin-bottom="0"
     inkscape:window-width="1440"
     inkscape:window-height="876"
     inkscape:window-x="0"
     inkscape:window-y="24"
     inkscape:window-maximized="1" />
  <metadata
     id="metadata7">
    <rdf:RDF>
      <cc:Work
         rdf:about="">
        <dc:format>image/svg+xml</dc:format>
        <dc:type
           rdf:resource="http://purl.org/dc/dcmitype/StillImage" />
        <dc:title></dc:title>
      </cc:Work>
    </rdf:RDF>
  </metadata>
  <g
     inkscape:label="Layer 1"
     inkscape:groupmode="layer"
     id="layer1"
     transform="translate(638.76786,-76.232143)">
    <g
       style="font-size:100px;font-style:normal;font-weight:normal;line-height:125%;letter-spacing:0px;word-spacing:0px;fill:#000080;fill-opacity:1;stroke:none;font-family:Sans"
       id="text2991" />
    <g
       style="font-size:40px;font-style:normal;font-weight:normal;line-height:125%;letter-spacing:0px;word-spacing:0px;fill:#0000ff;fill-opacity:1;stroke:none;font-family:Sans"
       id="text2995" />
    <g
       style="font-size:40px;font-style:normal;font-weight:normal;line-height:125%;letter-spacing:0px;word-spacing:0px;fill:#000080;fill-opacity:1;stroke:none;font-family:Sans"
       id="text2999"
       transform="translate(-722.14286,17.857143)">
      <path
         id="path3013"
         style="font-size:100px;font-variant:normal;font-stretch:normal;fill:#000080;font-family:Nunito;-inkscape-font-specification:Nunito"
         d="m 462.46783,185.19211 c 1.92055,-0.0325 3.71091,-0.26038 5.3711,-0.6836 1.69267,-0.45568 3.15752,-1.13928 4.39453,-2.05078 1.23694,-0.91141 2.2135,-2.03446 2.92969,-3.36914 0.7161,-1.36714 1.07418,-2.96219 1.07422,-4.78515 -4e-5,-1.69266 -0.34184,-3.17378 -1.02539,-4.44336 -0.68364,-1.26948 -1.59509,-2.32742 -2.73438,-3.17383 -1.13936,-0.87885 -2.47399,-1.52989 -4.00391,-1.95313 -1.49742,-0.42311 -3.0762,-0.6347 -4.73632,-0.63476 -1.59508,6e-5 -3.20641,0.14654 -4.83399,0.43945 -1.59507,0.29303 -3.09247,0.61855 -4.49219,0.97656 -1.3672,0.32558 -2.57163,0.63483 -3.61328,0.92774 -1.00913,0.26047 -1.709,0.39068 -2.09961,0.39062 -0.71615,6e-5 -1.35092,-0.13015 -1.90429,-0.39062 -0.5534,-0.26036 -1.0254,-0.60216 -1.41602,-1.02539 -0.39063,-0.45567 -0.69988,-0.96023 -0.92773,-1.51367 -0.19532,-0.58588 -0.29298,-1.17182 -0.29297,-1.75782 -10e-6,-0.9765 0.29296,-1.90423 0.8789,-2.7832 0.58593,-0.91139 1.54622,-1.59498 2.88086,-2.05078 2.34374,-0.97649 4.89907,-1.74147 7.66602,-2.29492 2.79946,-0.58587 5.69659,-0.87884 8.69141,-0.87891 3.6458,7e-5 6.98238,0.42325 10.00976,1.26953 3.0273,0.84643 5.63147,2.0834 7.8125,3.71094 2.18094,1.62767 3.85737,3.62962 5.0293,6.00586 1.20437,2.37636 1.80659,5.09445 1.80664,8.1543 -5e-5,2.05083 -0.34185,3.95512 -1.02539,5.71289 -0.68365,1.7253 -1.61138,3.27152 -2.78321,4.63867 -1.17192,1.33467 -2.55538,2.45772 -4.15039,3.36914 -1.56254,0.91149 -3.22269,1.54626 -4.98046,1.9043 l 0,0.19531 c 2.24605,0.42321 4.248,1.13936 6.00585,2.14844 1.75777,1.00914 3.25516,2.27867 4.49219,3.80859 1.23693,1.49742 2.18094,3.22268 2.83203,5.17578 0.65099,1.95315 0.97651,4.05276 0.97657,6.29883 -6e-5,3.48309 -0.68365,6.47788 -2.05079,8.98437 -1.36723,2.47397 -3.20642,4.50847 -5.51757,6.10352 -2.31125,1.59505 -4.99679,2.76693 -8.05664,3.51562 -3.05994,0.7487 -6.26631,1.12305 -9.61914,1.12305 -1.39977,0 -2.84834,-0.0977 -4.34571,-0.29297 -1.46487,-0.16276 -2.94598,-0.42317 -4.44336,-0.78125 -1.49741,-0.35807 -2.97853,-0.78125 -4.44336,-1.26953 -1.4323,-0.48828 -2.79949,-1.05794 -4.10156,-1.70898 -1.10678,-0.45573 -1.92058,-1.07422 -2.44141,-1.85547 -0.48829,-0.8138 -0.73243,-1.64388 -0.73242,-2.49024 -10e-6,-0.58593 0.0976,-1.15559 0.29297,-1.70898 0.22786,-0.55338 0.5371,-1.04166 0.92774,-1.46484 0.42316,-0.42317 0.92772,-0.76497 1.51367,-1.02539 0.58592,-0.26041 1.23696,-0.39062 1.95312,-0.39063 0.16275,1e-5 0.32551,0.0163 0.48828,0.0488 0.1953,1e-5 0.39061,0.0163 0.58594,0.0488 0.74868,0.29298 1.62759,0.6185 2.63672,0.97656 1.04165,0.32553 2.16469,0.65105 3.36914,0.97656 1.20441,0.29298 2.49021,0.5534 3.85742,0.78125 1.36716,0.19532 2.78318,0.29298 4.24805,0.29297 1.92054,10e-6 3.66208,-0.21158 5.22461,-0.63477 1.59502,-0.45571 2.94593,-1.10676 4.05273,-1.95312 1.13929,-0.87889 2.01819,-1.95311 2.63672,-3.22266 0.61845,-1.30206 0.92769,-2.81573 0.92774,-4.54101 -5e-5,-1.92055 -0.35812,-3.62954 -1.07422,-5.12696 -0.71619,-1.52992 -1.7253,-2.81572 -3.02735,-3.85742 -1.26956,-1.04163 -2.79951,-1.82288 -4.58984,-2.34375 -1.75784,-0.55335 -3.67841,-0.83004 -5.76172,-0.83008 l -3.56445,0 c -0.71617,4e-5 -1.33466,-0.1139 -1.85547,-0.34179 -0.52085,-0.26039 -0.96031,-0.58591 -1.31836,-0.97656 -0.32554,-0.42315 -0.58596,-0.87888 -0.78125,-1.36719 -0.16278,-0.5208 -0.24416,-1.05791 -0.24414,-1.61133 -2e-5,-1.10673 0.34178,-2.09957 1.02539,-2.97852 0.71612,-0.87886 1.77407,-1.33459 3.17383,-1.36718 l 3.22265,-0.0488 M 159.62952,153.00192 c -1.20446,6e-5 -2.40888,0.11399 -3.61328,0.3418 -1.20446,0.22792 -2.39261,0.52089 -3.56446,0.87891 -1.13934,0.35813 -2.24611,0.76503 -3.32031,1.2207 -1.07424,0.45579 -2.0508,0.89524 -2.92969,1.31836 -0.45574,0.22792 -0.89519,0.39068 -1.31836,0.48828 -0.42319,0.0652 -0.81381,0.0977 -1.17187,0.0977 -1.33465,5e-5 -2.40887,-0.4394 -3.22266,-1.31836 -0.81381,-0.9114 -1.22071,-1.95307 -1.2207,-3.125 -1e-5,-0.8463 0.26041,-1.69265 0.78125,-2.53907 0.52082,-0.87884 1.39973,-1.64381 2.63672,-2.29492 1.30207,-0.68353 2.71808,-1.31829 4.24804,-1.90429 1.56249,-0.61843 3.14126,-1.13926 4.73633,-1.5625 1.62758,-0.45567 3.25519,-0.81374 4.88281,-1.07422 1.62758,-0.26035 3.19008,-0.39056 4.6875,-0.39063 3.15752,7e-5 6.10348,0.3907 8.8379,1.17188 2.73433,0.74876 5.09435,1.87181 7.08007,3.36914 2.01818,1.49746 3.59696,3.33665 4.73633,5.51758 1.13927,2.14849 1.70893,4.63872 1.70899,7.4707 -6e-5,2.37635 -0.47206,4.83403 -1.41602,7.37305 -0.94406,2.50655 -2.22987,5.02933 -3.85742,7.56835 -1.5951,2.5391 -3.46684,5.07816 -5.61524,7.61719 -2.14847,2.50654 -4.42712,4.94794 -6.83593,7.32422 -2.37634,2.34377 -4.81774,4.60614 -7.32422,6.78711 -2.50654,2.14845 -4.93167,4.1504 -7.27539,6.00586 l 28.27148,0 c 0.7812,1e-5 1.4648,0.14649 2.05078,0.43945 0.58589,0.26043 1.07417,0.6185 1.46485,1.07422 0.39057,0.45574 0.68354,0.97657 0.8789,1.5625 0.19526,0.58594 0.29292,1.18816 0.29297,1.80664 -5e-5,0.58594 -0.0977,1.17188 -0.29297,1.75781 -0.19536,0.58594 -0.48833,1.10678 -0.8789,1.5625 -0.39068,0.42318 -0.87896,0.78126 -1.46485,1.07422 -0.58598,0.26042 -1.26958,0.39063 -2.05078,0.39063 l -36.71875,0 c -2.31121,0 -4.02019,-0.55339 -5.12695,-1.66016 -1.10678,-1.13932 -1.66016,-2.49023 -1.66016,-4.05273 0,-1.17187 0.29297,-2.34374 0.87891,-3.51563 0.61848,-1.17186 1.49739,-2.27863 2.63672,-3.32031 0.35806,-0.32551 0.87889,-0.78124 1.5625,-1.36719 0.68358,-0.58592 1.43228,-1.25324 2.24609,-2.00195 0.84634,-0.74868 1.74152,-1.52993 2.68555,-2.34375 0.94399,-0.84634 1.87173,-1.69269 2.7832,-2.53906 0.94399,-0.84634 1.8229,-1.67641 2.63672,-2.49024 0.84633,-0.81378 1.59503,-1.5462 2.24609,-2.19726 2.37628,-2.27862 4.6061,-4.58982 6.68946,-6.9336 2.11585,-2.34371 3.95504,-4.62236 5.51757,-6.83593 1.56247,-2.24606 2.79945,-4.37822 3.71094,-6.39649 0.91142,-2.05073 1.36715,-3.88992 1.36719,-5.51758 -4e-5,-1.46479 -0.32556,-2.75059 -0.97656,-3.85742 -0.61853,-1.10671 -1.44861,-2.01817 -2.49024,-2.73437 -1.0417,-0.74864 -2.24613,-1.30203 -3.61328,-1.66016 -1.36722,-0.39057 -2.79951,-0.58588 -4.29687,-0.58594 m 146.19455,-47.29172 c -0.78127,0.45578 -1.56252,0.68364 -2.34375,0.68359 -0.61851,5e-5 -1.20444,-0.13016 -1.75782,-0.39063 -0.52084,-0.26036 -0.99285,-0.60216 -1.41601,-1.02539 -0.39064,-0.42312 -0.69988,-0.9114 -0.92774,-1.46484 -0.22787,-0.55333 -0.3418,-1.12299 -0.34179,-1.70898 -1e-5,-0.65099 0.16275,-1.30203 0.48828,-1.953129 0.35806,-0.683536 0.92772,-1.253197 1.70898,-1.708985 l 17.57813,-10.595703 c 0.5208,-0.292899 1.07419,-0.504487 1.66015,-0.634766 0.58591,-0.130138 1.15557,-0.211518 1.70899,-0.24414 0.78121,7e-5 1.52991,0.130278 2.24609,0.390625 0.74866,0.260486 1.3997,0.667387 1.95313,1.220703 0.5859,0.520901 1.04163,1.171942 1.36718,1.953125 0.35804,0.781316 0.53707,1.709049 0.53711,2.783203 l 0.0488,57.666017 c -4e-5,1.04167 -0.19535,1.95313 -0.58594,2.73437 -0.35811,0.7487 -0.84639,1.38347 -1.46484,1.9043 -0.58597,0.48828 -1.26957,0.86263 -2.05078,1.12305 -0.74873,0.26041 -1.51371,0.39062 -2.29492,0.39062 -0.78128,0 -1.56253,-0.13021 -2.34375,-0.39062 -0.74873,-0.26042 -1.43232,-0.63477 -2.05078,-1.12305 -0.58597,-0.52083 -1.05797,-1.1556 -1.41602,-1.9043 -0.3581,-0.78124 -0.53714,-1.6927 -0.53711,-2.73437 l -0.0488,-51.123048 -9.71679,6.152348 M 236.90625,58.375 l 0,64.65625 -153.53125,0 0,110.09375 153.53125,0 153.5625,0 153.53125,0 0,-85.875 -153.53125,0 0,-88.875 -153.5625,0 z"
         inkscape:connector-curvature="0" />
    </g>
  </g>
</svg>
